<?xml version="1.0" encoding="utf-8"?>
<!-- Generator: Adobe Illustrator 28.0.0, SVG Export Plug-In . SVG Version: 6.00 Build 0)  -->
<svg version="1.1" id="Layer_2_00000140714003555953831700000010498686755371671178_"
	 xmlns="http://www.w3.org/2000/svg" xmlns:xlink="http://www.w3.org/1999/xlink" x="0px" y="0px" viewBox="0 0 346.6 184.5"
	 style="enable-background:new 0 0 346.6 184.5;" xml:space="preserve">
<style type="text/css">
	.st0{fill:#FFFFFF;}
	.st1{fill:#2EACAD;}
</style>
<g id="Layer_1-2">
	<path class="st0" d="M288.9,92.3L288.9,92.3c11.4-5.5,25.2-20.4,25.2-44.7v-3c0-23.9-19.4-43.3-43.3-43.4l-39.7,0
		c-1.6,0-2.9,1.3-2.9,2.9v36.9c0,1.6,1.3,2.9,2.9,2.9l8.5,0.1c4.9,0,8.8,4,8.8,8.9l0,8.1c0,4.9-4,8.9-8.9,8.9h-8.3
		c-1.6,0-2.9,1.3-2.9,2.9v19.3l0,0v19.3c0,1.6,1.3,2.9,2.9,2.9h8.3c4.9,0,8.9,4,8.9,8.9l0,8.1c0,4.9-3.9,8.8-8.8,8.9l-8.5,0.1
		c-1.6,0-2.9,1.3-2.9,2.9v36.9c0,1.6,1.3,2.9,2.9,2.9l39.7,0c23.9,0,43.3-19.4,43.3-43.4v-3C314.1,112.6,300.3,97.7,288.9,92.3
		L288.9,92.3z"/>
	<path class="st1" d="M148.7,77.3L86,3.3c-0.7-0.8-1.2,0.9-2,1.6L37.7,44.3c-0.8,0.7-0.9,1.9-0.2,2.8c0,0,111.4,132.4,111.4,132.4
		L148.7,77.3L148.7,77.3z"/>
	<path class="st0" d="M37.8,1.2h43.8c3,0,5.4,2.4,5.4,5.4v171.3c0,3-2.4,5.4-5.4,5.4H37.8c-3,0-5.4-2.4-5.4-5.4V6.6
		C32.4,3.6,34.8,1.2,37.8,1.2z"/>
	<path class="st1" d="M154.8,37.4l54.2,37c1,0.7,2.3,0,2.3-1.2V6.6c0-3-2.4-5.4-5.4-5.4h-51.8c-3,0-5.4,2.4-5.4,5.4v24
		c0,1.7,0.8,3.2,2.2,4.1C150.9,34.7,154.8,37.4,154.8,37.4z"/>
	<path class="st0" d="M208.7,91.2l-56.9-38.9c-1.3-0.9-3.1,0-3.1,1.7l0.1,81.9l59.9-41.1C210,93.9,210,92,208.7,91.2L208.7,91.2z"/>
	<path class="st0" d="M154.8,148.6l-6.2,4.2v25.1c0,3,2.4,5.4,5.4,5.4h51.8c3,0,5.4-2.4,5.4-5.4v-64.4c0-1.5-1.7-2.4-2.9-1.5
		L154.8,148.6L154.8,148.6z"/>
</g>
</svg>
