<?xml version="1.0" encoding="UTF-8"?>
<svg id="Layer_2" data-name="Layer 2" xmlns="http://www.w3.org/2000/svg" viewBox="0 0 281.73 182.14">
  <defs>
    <style>
      .cls-1 {
        fill: #1b1b1b;
      }

      .cls-1, .cls-2 {
        stroke-width: 0px;
      }

      .cls-2 {
        fill: #2eacad;
      }
    </style>
  </defs>
  <g id="Layer_1-2" data-name="Layer 1">
    <path class="cls-1" d="m256.51,91.11h0c11.4-5.49,25.22-20.38,25.22-44.66v-2.98c0-23.93-19.38-43.34-43.31-43.36l-39.74-.04c-1.62,0-2.93,1.31-2.93,2.93v36.89c0,1.6,1.29,2.91,2.9,2.93l8.49.09c4.85.05,8.76,4,8.77,8.85l.02,8.13c.01,4.91-3.97,8.9-8.88,8.9h-8.33c-1.63,0-2.95,1.32-2.95,2.95v19.35s0,0,0,0v19.35c0,1.63,1.32,2.95,2.95,2.95h8.33c4.91,0,8.89,3.99,8.88,8.9l-.02,8.13c-.01,4.85-3.92,8.79-8.77,8.85l-8.49.09c-1.6.02-2.9,1.32-2.9,2.93v36.89c0,1.62,1.31,2.93,2.93,2.93l39.74-.04c23.93-.02,43.31-19.43,43.31-43.36v-2.98c0-24.27-13.82-39.17-25.22-44.66Z"/>
    <path class="cls-2" d="m116.27,76.16L53.6,2.15c-.7-.82-1.18.86-2,1.55L5.28,43.1c-.82.7-.92,1.93-.22,2.75,0,0,111.37,132.37,111.44,132.43l-.23-102.11Z"/>
    <rect class="cls-1" width="54.7" height="182.14" rx="5.43" ry="5.43"/>
    <path class="cls-2" d="m122.43,36.23l54.22,37.03c.98.67,2.3-.03,2.3-1.22V5.43C178.95,2.43,176.52,0,173.53,0h-51.83C118.7,0,116.27,2.43,116.27,5.43v23.96c0,1.65.81,3.19,2.17,4.12l3.99,2.72Z"/>
    <path class="cls-1" d="m176.32,89.99l-56.9-38.87c-1.33-.91-3.14.04-3.14,1.66l.13,81.87,59.92-41.06c1.27-.87,1.27-2.74,0-3.6Z"/>
    <path class="cls-1" d="m122.43,147.39l-6.16,4.21v25.11c0,3,2.43,5.43,5.43,5.43h51.83c3,0,5.43-2.43,5.43-5.43v-64.41c0-1.49-1.67-2.37-2.9-1.53l-53.62,36.63Z"/>
  </g>
</svg>